<?xml version="1.0" encoding="utf-8"?>
<!-- Generator: Adobe Illustrator 26.3.1, SVG Export Plug-In . SVG Version: 6.00 Build 0)  -->
<svg version="1.1" id="a" xmlns="http://www.w3.org/2000/svg" xmlns:xlink="http://www.w3.org/1999/xlink" x="0px" y="0px"
	 viewBox="0 0 300 75" style="enable-background:new 0 0 300 75;" xml:space="preserve">
<style type="text/css">
	.st0{fill:#8B9CBB;}
	.st1{fill:#FFFFFF;}
	.st2{fill:#6FC7DA;}
	.st3{fill:#006AB3;}
</style>
<g>
	<path class="st0" d="M165.5,63.6c0.5,0,0.9,0.1,1.3,0.3c0.4,0.2,0.7,0.4,1,0.7s0.5,0.7,0.7,1.1c0.2,0.4,0.3,0.9,0.3,1.4
		s-0.1,1-0.3,1.4c-0.2,0.4-0.4,0.8-0.7,1.1c-0.3,0.3-0.6,0.5-1,0.7c-0.4,0.2-0.8,0.3-1.3,0.3s-0.9-0.1-1.2-0.3
		c-0.3-0.2-0.6-0.4-0.8-0.7v0.8H162v-9.8h1.4v4c0.2-0.3,0.5-0.5,0.8-0.7C164.6,63.7,165,63.7,165.5,63.6L165.5,63.6z M165.3,65
		c-0.3,0-0.6,0.1-0.8,0.2c-0.2,0.1-0.4,0.3-0.6,0.4c-0.2,0.2-0.3,0.4-0.4,0.7c-0.1,0.3-0.1,0.5-0.1,0.8s0,0.6,0.1,0.8
		c0.1,0.3,0.2,0.5,0.4,0.7c0.2,0.2,0.4,0.3,0.6,0.4c0.2,0.1,0.5,0.2,0.8,0.2c0.3,0,0.6-0.1,0.8-0.2c0.2-0.1,0.4-0.3,0.6-0.4
		c0.2-0.2,0.3-0.4,0.4-0.7c0.1-0.3,0.1-0.5,0.1-0.8s0-0.6-0.1-0.8c-0.1-0.3-0.2-0.5-0.4-0.7c-0.2-0.2-0.4-0.3-0.6-0.4
		C165.9,65,165.6,65,165.3,65L165.3,65z"/>
	<path class="st0" d="M171.4,73.1h-1.6l2.3-4.1l-2.9-5.2h1.6l2.1,3.7l2-3.7h1.6L171.4,73.1L171.4,73.1z"/>
</g>
<g>
	<path class="st1" d="M125.2,40.7c-3.4,0-6-0.8-7.6-2.3c-1.6-1.5-2.4-3.9-2.4-7.1v-4.3c0-6.4,3.2-9.5,9.9-9.5c3.4,0,5.9,0.8,7.5,2.3
		c1.6,1.5,2.3,3.9,2.3,7.1v4.3C135,37.6,131.8,40.7,125.2,40.7L125.2,40.7z M125.2,20c-2.6,0-4.4,0.5-5.5,1.6
		c-1.1,1.1-1.6,2.8-1.6,5.3v4.3c0,2.4,0.5,4.2,1.6,5.3c1.1,1.1,2.9,1.6,5.5,1.6s4.4-0.5,5.4-1.6c1.1-1.1,1.6-2.8,1.6-5.3v-4.3
		c0-2.4-0.5-4.2-1.6-5.3C129.6,20.5,127.7,20,125.2,20z"/>
	<path class="st1" d="M161.4,49.6V26.8c0-6.3,3.2-9.4,9.9-9.4c3.3,0,5.9,0.8,7.5,2.3c1.6,1.5,2.4,3.9,2.4,7.1v4.3
		c0,6.4-3,9.5-9.3,9.5c-3.5,0-5.8-1.1-7-3.3l-0.1-0.1l-0.6,0.1v12.1L161.4,49.6L161.4,49.6z M171.3,20c-2.6,0-4.4,0.5-5.5,1.6
		c-1.1,1.1-1.6,2.8-1.6,5.3v4.3c0,2.4,0.5,4.2,1.6,5.3c1.1,1.1,2.9,1.6,5.5,1.6c2.6,0,4.4-0.5,5.4-1.6s1.6-2.8,1.6-5.3v-4.3
		c0-2.5-0.5-4.2-1.6-5.3S173.8,20,171.3,20z"/>
	<path class="st1" d="M217.1,40.7c-3.1,0-5.9-0.9-7.5-2.3c-1.6-1.5-2.5-3.9-2.5-7.1v-4.6c0-3,0.8-5.4,2.5-6.9
		c1.7-1.6,4.2-2.4,7.6-2.4c2.3,0,4,0.6,4.8,1c0.2,0.1,0.4,0.3,0.4,0.6v1.7c0,0.2-0.2,0.4-0.4,0.4c0,0-0.1,0-0.1,0
		c-1.1-0.4-2.8-1-4.5-1c-2.6,0-4.5,0.5-5.6,1.6c-1.1,1.1-1.7,2.8-1.7,5.2v4.5c0,2.4,0.6,4.2,1.8,5.2c1.2,1,3.2,1.5,5.8,1.5
		c1.6,0,3.2-0.4,4.3-0.7c0,0,0.1,0,0.1,0c0.2,0,0.4,0.2,0.4,0.4v1.5c0,0.3-0.2,0.5-0.4,0.6C221.1,40.1,219.4,40.7,217.1,40.7
		L217.1,40.7z"/>
	<path class="st1" d="M236.5,40.6c-5,0-7.5-2.6-7.5-7.9V20.5h-3.4c-0.3,0-0.6-0.3-0.6-0.6V19c0-0.3,0.2-0.5,0.5-0.6l3.4-0.6l0.6-5.5
		c0-0.3,0.3-0.5,0.6-0.5h1.2c0.2,0,0.3,0.1,0.4,0.2c0.1,0.1,0.2,0.3,0.2,0.4l-0.1,5.5h7.7c0.3,0,0.6,0.3,0.6,0.6v1.5
		c0,0.3-0.3,0.6-0.6,0.6h-7.7v12.2c0,1.8,0.4,3.1,1.1,4c0.8,0.9,2,1.3,3.5,1.3c1.7,0,3.4-0.4,4.6-0.6c0,0,0.1,0,0.1,0
		c0.3,0,0.5,0.2,0.5,0.5v1.4c0,0.3-0.2,0.5-0.4,0.6C240.3,40.1,238.5,40.6,236.5,40.6L236.5,40.6z"/>
	<path class="st1" d="M195.2,40.7c-3.6,0-6.3-0.7-8-2.2c-1.6-1.5-2.5-3.9-2.5-7.2v-4.4c0-6.2,3.2-9.5,9.3-9.5c3.2,0,5.5,0.7,7.1,2.3
		c1.6,1.5,2.3,3.8,2.3,6.7c0,1.1,0,1.9-0.1,2.5c-0.1,0.7-0.2,0.9-0.3,1c-0.1,0.1-0.3,0.2-1,0.2h-14.5v1.7c0,2.2,0.6,3.8,1.8,4.8
		c1.2,1,3.1,1.5,5.8,1.5h0.3c2.5-0.1,5-0.6,6.3-1c0.1,0,0.1,0,0.1,0c0.3,0,0.6,0.3,0.6,0.6v1.2c0,0.3-0.2,0.6-0.5,0.8
		C200.9,40,198.4,40.7,195.2,40.7L195.2,40.7z M194.3,19.8c-4.4,0-6.7,2-6.7,6.1v1.9h13.3v-1.9C200.9,21.9,198.7,19.8,194.3,19.8
		L194.3,19.8z"/>
	<path class="st1" d="M103.3,40.7c-3.6,0-6.3-0.7-8-2.2c-1.6-1.5-2.5-3.9-2.5-7.2v-4.4c0-6.2,3.2-9.5,9.3-9.5c3.2,0,5.5,0.7,7.1,2.3
		c1.6,1.5,2.3,3.8,2.3,6.7c0,1.1,0,1.9-0.1,2.5c-0.1,0.7-0.2,0.9-0.3,1c-0.1,0.1-0.3,0.2-1,0.2H95.7v1.7c0,2.2,0.6,3.8,1.8,4.8
		c1.2,1,3.1,1.5,5.8,1.5h0.3c2.5-0.1,5-0.6,6.3-1c0.1,0,0.1,0,0.1,0c0.3,0,0.6,0.3,0.6,0.6V39c0,0.3-0.2,0.5-0.4,0.6
		C109.1,40,106.5,40.7,103.3,40.7L103.3,40.7z M102.3,19.8c-4.4,0-6.7,2-6.7,6.1v1.9H109v-1.9C109,21.9,106.7,19.8,102.3,19.8
		L102.3,19.8z"/>
	<path class="st1" d="M246.1,40.3c-0.4,0-0.7-0.3-0.7-0.7v-15c0-4.7,3-7,9.4-7c0.5,0,1,0,1.5,0c0.3,0,0.6,0.3,0.6,0.6v1.2
		c0,0.2-0.1,0.3-0.2,0.4c-0.1,0.1-0.3,0.2-0.4,0.2h0c-0.5,0-1,0-1.6,0c-2.1,0-3.7,0.4-4.8,1.1c-1.1,0.7-1.6,1.9-1.6,3.5v15
		c0,0.4-0.3,0.7-0.7,0.7L246.1,40.3L246.1,40.3z"/>
	<path class="st1" d="M266.2,40.7c-2.7,0-4.9-0.6-6.3-1.7c-1.4-1.1-2.1-2.8-2.1-5c0-2.2,0.7-3.9,2.2-4.9c1.5-1,3.8-1.5,7-1.5h5.9
		v-3.1c0-1.6-0.6-2.8-1.6-3.5c-1.1-0.7-2.7-1.1-4.8-1.1c-1.9,0-3.7,0.2-5.6,0.6c0,0-0.1,0-0.1,0c-0.3,0-0.6-0.3-0.6-0.6v-1.3
		c0-0.3,0.2-0.5,0.5-0.6c1-0.2,3.1-0.6,5.6-0.6c6.5,0,9.5,2.2,9.5,7v9.3c0,2.5-0.7,4.3-2.2,5.4C271.9,40.1,269.5,40.7,266.2,40.7
		L266.2,40.7z M267,29.6c-2.2,0-3.8,0.3-4.8,1c-1,0.7-1.6,1.8-1.6,3.4c0,2.9,1.9,4.3,5.6,4.3c2.3,0,4-0.4,5.1-1.1
		c1.1-0.7,1.6-2,1.6-3.8v-3.9L267,29.6L267,29.6z"/>
	<path class="st1" d="M147.9,40.7c-4,0-7.1-0.9-8.3-1.3c-0.2-0.1-0.4-0.3-0.4-0.6v-2c0-0.1,0-0.2,0.1-0.3c0.1-0.1,0.2-0.1,0.3-0.1
		c0,0,0.1,0,0.1,0c1.3,0.4,4.6,1.4,8.3,1.4c2.5,0,4.4-0.3,5.5-1c1.2-0.7,1.8-1.8,1.8-3.4c0-1.2-0.3-2.1-0.9-2.9
		c-0.6-0.7-1.8-1.6-3.5-2.6l-6.9-4.3c-3-1.8-4.5-4.2-4.5-7.1c0-2.3,0.8-3.9,2.2-5c1.5-1.1,3.9-1.6,7.2-1.6c3,0,6,0.8,7.7,1.5
		c0.2,0.1,0.4,0.3,0.4,0.6v1.9c0,0.2-0.2,0.4-0.4,0.4c0,0-0.1,0-0.1,0c-1.7-0.7-4.3-1.5-7.6-1.5c-2.2,0-3.8,0.3-4.8,0.9
		c-1,0.6-1.6,1.7-1.6,3.1c0,1,0.3,1.9,0.7,2.5c0.5,0.6,1.4,1.4,2.7,2.2l7.1,4.4c1.9,1.2,3.3,2.4,4.1,3.5c0.8,1.1,1.2,2.5,1.2,4.1
		C158.3,38.3,154.8,40.7,147.9,40.7L147.9,40.7z"/>
	<path class="st1" d="M84.5,40.5c-0.9,0-1.7-0.5-2.1-1.4l-11.1-26c-0.1-0.3-0.4-0.5-0.7-0.5c-0.4,0-0.8,0.3-0.8,0.8v26.2
		c0,0.4-0.4,0.8-0.8,0.8h-1.3c-0.4,0-0.8-0.4-0.8-0.8V12.9c0-1.3,1-2.3,2.3-2.3h2.3c0.9,0,1.7,0.5,2.1,1.4l11,25.8
		c0.1,0.3,0.4,0.5,0.7,0.5c0.4,0,0.8-0.3,0.8-0.8V11.3c0-0.4,0.4-0.8,0.8-0.8h1.3c0.4,0,0.8,0.4,0.8,0.8v26.9c0,1.3-1,2.3-2.3,2.3
		C86.7,40.5,84.5,40.5,84.5,40.5z"/>
</g>
<g>
	<path class="st0" d="M269.9,74.4c-2.6,0-4.5-0.5-5.7-1.6c-1.2-1.1-1.8-2.8-1.8-5.2v-3.1c0-4.6,2.3-6.9,6.7-6.9c2.3,0,4,0.5,5.1,1.7
		c1.1,1.1,1.7,2.7,1.7,4.8c0,0.8,0,1.4-0.1,1.8c-0.1,0.5-0.2,0.7-0.2,0.7c-0.1,0.1-0.3,0.2-0.8,0.2h-10.3V68c0,1.6,0.4,2.7,1.3,3.4
		c0.8,0.7,2.2,1,4.1,1h0.2c1.8,0,3.6-0.4,4.6-0.7c0,0,0.1,0,0.1,0c0.3,0,0.5,0.2,0.5,0.5v0.9c0,0.2-0.1,0.4-0.3,0.5
		C274.1,73.9,272.2,74.4,269.9,74.4L269.9,74.4z M269.2,59.5c-3.1,0-4.7,1.4-4.7,4.3V65h9.4v-1.3C273.9,60.9,272.3,59.5,269.2,59.5
		L269.2,59.5z"/>
	<path class="st0" d="M253.1,74.1c-0.1,0-0.1-0.1-0.1-0.1V62.7c0-3.4,2.2-5.1,6.8-5.1c0.3,0,0.7,0,1,0c0.3,0,0.4,0.2,0.4,0.5V59
		c0,0.1-0.1,0.2-0.1,0.3c-0.1,0.1-0.2,0.1-0.3,0.1c-0.4,0-0.8,0-1.2,0c-1.5,0-2.7,0.3-3.4,0.8c-0.8,0.5-1.2,1.4-1.2,2.5v11.2
		c0,0.1-0.1,0.1-0.1,0.1L253.1,74.1L253.1,74.1z"/>
	<path class="st0" d="M198.6,58h1.8c0.1,0,0.1,0.1,0.1,0.1v15.8c0,0.1-0.1,0.1-0.1,0.1h-1.8c-0.1,0-0.1-0.1-0.1-0.1V58.1
		C198.5,58,198.5,58,198.6,58z"/>
	<path class="st0" d="M203.4,62.8h6.6c0.1,0,0.1,0.1,0.1,0.1v1.5c0,0.1-0.1,0.1-0.1,0.1h-6.6c-0.1,0-0.1-0.1-0.1-0.1v-1.5
		C203.3,62.9,203.3,62.8,203.4,62.8z"/>
	<path class="st0" d="M243,74.4c-2,0-3.5-0.4-4.5-1.2c-1-0.8-1.5-2-1.5-3.6s0.5-2.8,1.6-3.6c1.1-0.7,2.8-1.1,5.1-1.1h4.1v-2.2
		c0-1.1-0.4-2-1.2-2.5c-0.7-0.5-1.9-0.8-3.4-0.8c-1.4,0-2.7,0.1-4,0.4c0,0-0.1,0-0.1,0c-0.3,0-0.5-0.2-0.5-0.5v-0.9
		c0-0.2,0.2-0.4,0.4-0.5c0.7-0.1,2.2-0.4,4-0.4c4.7,0,6.8,1.6,6.8,5.1v6.6c0,1.8-0.5,3.1-1.6,3.9C247.1,74,245.4,74.4,243,74.4
		L243,74.4z M243.6,66.5c-1.6,0-2.7,0.2-3.4,0.7c-0.7,0.5-1.1,1.3-1.1,2.4c0,2,1.3,3,3.9,3c1.7,0,2.9-0.2,3.6-0.8
		c0.7-0.5,1.1-1.4,1.1-2.7v-2.7L243.6,66.5L243.6,66.5z"/>
	<path class="st0" d="M230.4,74.3c-1.4,0-2.6-1-2.8-2.3l-2.6-12.1c-0.1-0.3-0.3-0.5-0.7-0.5s-0.6,0.2-0.7,0.5L221,72.1
		c-0.3,1.3-1.5,2.3-2.8,2.3h-0.1c-1.3,0-2.5-0.9-2.8-2.3l-4.1-18.8c0-0.1,0-0.3,0.1-0.4c0.1-0.1,0.2-0.2,0.4-0.2h1.2
		c0.2,0,0.4,0.2,0.5,0.4l4.1,19c0.1,0.3,0.3,0.5,0.7,0.5s0.6-0.2,0.7-0.5l2.6-12.2c0.3-1.3,1.5-2.3,2.8-2.3c1.3,0,2.5,1,2.8,2.3
		l2.6,12.2c0.1,0.3,0.3,0.5,0.7,0.5c0.3,0,0.6-0.2,0.7-0.5l4.1-19c0-0.2,0.2-0.4,0.5-0.4h1.2c0.1,0,0.3,0.1,0.4,0.2
		c0.1,0.1,0.1,0.3,0.1,0.4l-4.1,18.8C232.9,73.4,231.7,74.4,230.4,74.3L230.4,74.3z"/>
	<path class="st0" d="M199.5,56c-0.7,0-1.3-0.6-1.3-1.3c0-0.7,0.6-1.3,1.3-1.3s1.3,0.6,1.3,1.3C200.9,55.4,200.3,56,199.5,56z"/>
	<path class="st0" d="M188.4,74.4c-2.8,0-5.1-0.7-6-0.9c-0.2-0.1-0.3-0.2-0.3-0.5v-1.4c0-0.1,0-0.2,0.1-0.2c0.1-0.1,0.1-0.1,0.2-0.1
		c0,0,0.1,0,0.1,0c0.9,0.3,3.3,1,5.9,1c1.8,0,3.1-0.2,3.9-0.7c0.8-0.5,1.3-1.3,1.3-2.4c0-0.8-0.2-1.5-0.7-2
		c-0.4-0.5-1.3-1.1-2.5-1.9l-5-3c-2.1-1.3-3.2-3-3.2-5.2c0-1.6,0.5-2.9,1.6-3.6c1.1-0.8,2.8-1.2,5.2-1.2c2.2,0,4.3,0.6,5.5,1.1
		c0.2,0.1,0.3,0.2,0.3,0.4v1.4c0,0.2-0.2,0.3-0.3,0.3c0,0-0.1,0-0.1,0c-1.2-0.5-3.1-1.1-5.4-1.1c-1.6,0-2.7,0.2-3.4,0.6
		c-0.7,0.4-1.1,1.2-1.1,2.1c0,0.7,0.2,1.3,0.5,1.8c0.3,0.4,1,1,1.9,1.6l5.1,3.1c1.4,0.9,2.4,1.7,3,2.5c0.6,0.8,0.8,1.8,0.8,3
		C195.9,72.7,193.4,74.4,188.4,74.4L188.4,74.4z"/>
</g>
<g>
	<path class="st2" d="M47.5,26.3v-0.1c0-12-9.8-21.8-21.8-21.8h-8.1V0.8h8.1c14,0,25.4,11.4,25.4,25.4v0.1
		C51.1,26.3,47.5,26.3,47.5,26.3z"/>
	<path class="st2" d="M38.8,26.3v-0.1c0-7.3-5.9-13.2-13.2-13.2H8.9V9.4h16.8c9.3,0,16.8,7.5,16.8,16.8v0.1L38.8,26.3L38.8,26.3z"/>
	<path class="st2" d="M30.2,26.3v-0.1c0-2.5-2-4.5-4.5-4.5H0.2v-3.6h25.4c4.5,0,8.1,3.6,8.1,8.1v0.1L30.2,26.3L30.2,26.3z"/>
</g>
<g>
	<path class="st3" d="M25.6,51.6c-14,0-25.4-11.4-25.4-25.4v-0.1h3.6v0.1c0,12,9.8,21.8,21.8,21.8h8.1v3.6H25.6z"/>
	<path class="st3" d="M25.6,43c-9.3,0-16.8-7.5-16.8-16.8v-0.1h3.6v0.1c0,7.3,5.9,13.2,13.2,13.2h16.8V43H25.6z"/>
	<path class="st3" d="M25.6,34.3c-4.5,0-8.1-3.6-8.1-8.1v-0.1h3.6v0.1c0,2.5,2,4.5,4.5,4.5h25.4v3.6H25.6z"/>
</g>
<path class="st1" d="M298,27.3l-0.3-5.3c0-0.4,0-0.8,0-1.3c0-0.4,0-0.9,0-1.3l0-0.2h-0.4l0,0.1c-0.1,0.3-0.2,0.7-0.3,1
	c-0.2,0.6-0.3,1.2-0.5,1.7l-1.6,5.1H293l-1.6-5.2c-0.2-0.7-0.4-1.8-0.7-2.6l0-0.1h-0.5v0.2c0,0.8,0,1.7-0.1,2.6l-0.3,5.3h-1.4l0.7-9
	h2.5l1.6,4.4c0.2,0.7,0.4,1.4,0.6,2.3l0,0.1l0.2,0h0.1l0.1-0.1c0.1-0.3,0.2-0.6,0.2-0.9c0.1-0.5,0.3-1,0.4-1.5l1.6-4.5h2.4l0.7,9
	L298,27.3L298,27.3z M283,27.3v-7.8h-3v-1.2h7.4v1.2h-3v7.8H283L283,27.3z"/>
</svg>
